#!OML:ASF F:\VICON\USERDATA\INSTALL\rory3\rory3.ASF
:FULLY-SPECIFIED
:DEGREES
150
root 0.915839 16.7481 -15.0082 11.8819 -0.159991 0.76566
lowerback -4.89365 1.65257 -3.35381
upperback -3.74901 2.31806 -1.13532
thorax -1.20248 1.21467 0.796099
lowerneck -16.968 -1.57697 -2.12085
upperneck 38.0305 -1.29575 -0.653642
head 16.5604 -0.92222 -0.149547
rclavicle 1.63625e-014 1.35174e-014
rhumerus -43.0796 -10.1334 -75.6425
rradius 26.5459
rwrist -6.56355
rhand 0.0442639 11.2225
rfingers 7.12502
rthumb 25.6328 -17.0722
lclavicle 1.63625e-014 1.35174e-014
lhumerus -36.5064 25.2371 68.1312
lradius 40.138
lwrist -2.32122
lhand 1.53155 17.0196
lfingers 7.12502
lthumb 27.0565 45.1012
rfemur -28.63 -0.914188 21.9467
rtibia 59.8183
rfoot -6.63376 -15.5015
rtoes -3.8591
lfemur -25.7807 -10.0304 -23.5591
ltibia 30.8205
lfoot -22.7506 20.4288
ltoes -7.82999
151
root 0.93382 16.736 -14.8927 12.141 -0.917785 0.455636
lowerback -5.26945 1.96502 -2.98496
upperback -3.916 2.73191 -1.12463
thorax -1.16395 1.41589 0.626206
lowerneck -16.0357 -1.6324 -1.99311
upperneck 37.798 -1.43708 -0.692363
head 16.2066 -0.967254 -0.203735
rclavicle -1.45237e-014 -1.15295e-014
rhumerus -43.6511 -10.1723 -75.6117
rradius 27.1173
rwrist -7.33672
rhand 0.0677126 11.0201
rfingers 7.12502
rthumb 25.6552 -17.2713
lclavicle -1.45237e-014 -1.15295e-014
lhumerus -36.5385 24.0642 68.3938
lradius 41.0489
lwrist -2.16668
lhand 0.915208 16.9952
lfingers 7.12502
lthumb 26.4667 45.167
rfemur -30.1683 -0.22621 22.1083
rtibia 59.4778
rfoot -7.14504 -15.8732
rtoes -3.73095
lfemur -25.6533 -10.0169 -23.4127
ltibia 31.0434
lfoot -23.7594 20.8128
ltoes -6.73363
152
root 0.943965 16.7275 -14.7632 12.0716 -0.65811 0.380715
lowerback -5.20149 1.90362 -2.75942
upperback -3.95147 2.63825 -1.12269
thorax -1.22433 1.36552 0.49563
lowerneck -15.4532 -1.62671 -1.93617
upperneck 37.7123 -1.50017 -0.599321
head 16.0198 -0.97225 -0.177855
rclavicle -2.40405e-014 -5.1684e-015
rhumerus -44.2079 -10.2522 -75.5692
rradius 27.7291
rwrist -7.6798
rhand -0.0023838 11.1516
rfingers 7.12502
rthumb 25.5881 -17.1495
lclavicle -2.40405e-014 -5.1684e-015
lhumerus -36.4499 22.7186 68.7078
lradius 42.0922
lwrist -1.674
lhand 0.26739 17.411
lfingers 7.12502
lthumb 25.8465 45.6747
rfemur -31.001 -0.215281 22.2705
rtibia 58.9233
rfoot -8.61273 -16.3182
rtoes -2.06265
lfemur -25.1983 -10.1702 -23.4438
ltibia 31.2429
lfoot -23.9747 20.9398
ltoes -7.9889
153
root 0.953531 16.7166 -14.6381 12.0492 -0.644256 0.214781
lowerback -4.96863 1.89672 -2.54868
upperback -4.00453 2.61249 -1.05164
thorax -1.40109 1.35138 0.439871
lowerneck -15.3135 -1.5722 -1.78353
upperneck 37.7902 -1.45078 -0.654602
head 16.0221 -0.937688 -0.21938
rclavicle -6.84565e-015 3.97569e-015
rhumerus -44.5172 -10.2552 -75.5286
rradius 28.1115
rwrist -7.86289
rhand -0.262063 11.4239
rfingers 7.12502
rthumb 25.3393 -16.9127
lclavicle -6.84565e-015 3.97569e-015
lhumerus -36.2617 21.7852 68.9695
lradius 42.9113
lwrist -1.38933
lhand -0.447291 17.7525
lfingers 7.12502
lthumb 25.1619 46.1141
rfemur -31.8843 0.0878785 22.4811
rtibia 58.2286
rfoot -10.0821 -16.8907
rtoes -2.38105
lfemur -24.9044 -10.0241 -23.4086
ltibia 31.5093
lfoot -24.0378 21.2154
ltoes -9.70333
154
root 0.964258 16.7077 -14.5172 12.0175 -0.545814 0.0376096
lowerback -4.77425 1.76869 -2.42606
upperback -3.93793 2.43442 -0.797994
thorax -1.44134 1.26269 0.620162
lowerneck -15.4234 -1.54962 -1.80381
upperneck 37.7629 -1.3413 -0.8335
head 16.0333 -0.921197 -0.275018
rclavicle -2.27236e-014 -9.14409e-015
rhumerus -44.4075 -9.8899 -75.5526
rradius 28.4337
rwrist -8.30159
rhand -0.687646 11.729
rfingers 7.12502
rthumb 24.9316 -16.6648
lclavicle -2.27236e-014 -9.14409e-015
lhumerus -36.1003 21.8045 69.0879
lradius 43.5152
lwrist -1.7088
lhand -1.18889 17.3169
lfingers 7.12502
lthumb 24.4511 45.7764
rfemur -32.742 0.213966 22.7
rtibia 57.3403
rfoot -11.4419 -17.5197
rtoes -4.43673
lfemur -24.5148 -9.85388 -23.3754
ltibia 31.676
lfoot -23.9104 21.3424
ltoes -11.3335
155
root 0.975355 16.6999 -14.3934 11.9377 -0.323277 -0.0797548
lowerback -4.51539 1.50975 -2.26473
upperback -3.88792 2.07893 -0.572429
thorax -1.5258 1.08443 0.743319
lowerneck -15.4453 -1.51762 -1.79707
upperneck 37.6325 -1.21614 -1.0564
head 15.97 -0.901845 -0.350016
rclavicle 1.09953e-014 5.36719e-015
rhumerus -44.2356 -9.4855 -75.6145
rradius 28.6083
rwrist -8.64483
rhand -1.19558 12.9003
rfingers 7.12502
rthumb 24.4447 -15.5601
lclavicle 1.09953e-014 5.36719e-015
lhumerus -36.1657 21.8915 68.9106
lradius 44.0101
lwrist -1.8861
lhand -2.11133 16.1894
lfingers 7.12502
lthumb 23.5666 44.7655
rfemur -33.4343 0.194944 22.8243
rtibia 56.2619
rfoot -12.6058 -17.9649
rtoes -3.81995
lfemur -23.956 -9.93501 -23.3469
ltibia 31.7726
lfoot -24.5874 20.7649
ltoes -9.81123
